<svg width="19.374023" height="19.419189" viewBox="0 0 19.374 19.4192" fill="none" xmlns="http://www.w3.org/2000/svg" xmlns:xlink="http://www.w3.org/1999/xlink">
	<desc>
			Created with Pixso.
	</desc>
	<defs/>
	<path id="Vector" d="M18.6201 11.1196C18.6953 10.6536 18.7324 10.1819 18.7324 9.70972C18.7324 7.31079 17.7793 5.01025 16.083 3.31396C14.3867 1.61768 12.0859 0.664551 9.6875 0.664551C9.21484 0.663818 8.74316 0.70166 8.27734 0.7771C7.23145 0.150879 6.00684 -0.108154 4.79785 0.0412598C3.58789 0.19043 2.46289 0.739746 1.60156 1.60132C0.739258 2.46313 0.19043 3.58813 0.0410156 4.79761C-0.108398 6.00708 0.151367 7.23169 0.777344 8.2771C0.692383 8.75 0.647461 9.22925 0.642578 9.70972C0.642578 12.1086 1.59473 14.4092 3.29102 16.1055C4.9873 17.8018 7.28809 18.7546 9.6875 18.7546C10.1592 18.7554 10.6309 18.7178 11.0967 18.6421C12.1426 19.2683 13.3672 19.5273 14.5771 19.3782C15.7861 19.2288 16.9111 18.6797 17.7725 17.8179C18.6348 16.9561 19.1836 15.8313 19.333 14.6218C19.4824 13.4124 19.2236 12.1875 18.5967 11.1421L18.6201 11.1196ZM13.9844 13.8196C13.5615 14.405 12.9775 14.8555 12.3047 15.1172C11.4736 15.4431 10.5869 15.6013 9.69434 15.582C8.65625 15.6257 7.62305 15.4119 6.6875 14.9597C6.1416 14.6663 5.67383 14.2473 5.32227 13.7371C5 13.3013 4.81738 12.7786 4.79688 12.2371C4.7959 12.0967 4.82422 11.9575 4.87988 11.8284C4.93555 11.6995 5.01758 11.5833 5.12012 11.4871C5.34668 11.2937 5.63965 11.1946 5.9375 11.2097C6.18652 11.2048 6.42871 11.29 6.62012 11.4497C6.8291 11.6455 6.99023 11.8867 7.0918 12.1545C7.22266 12.4678 7.38867 12.7649 7.58691 13.0396C7.78516 13.2935 8.04297 13.4944 8.33691 13.6248C8.7373 13.7961 9.16992 13.8755 9.60449 13.8572C10.2236 13.8872 10.8369 13.7246 11.3594 13.3921C11.5605 13.2747 11.7275 13.1072 11.8438 12.906C11.9609 12.7051 12.0244 12.4773 12.0273 12.2446C12.0332 12.0818 12.0059 11.9194 11.9443 11.7681C11.8838 11.6169 11.792 11.4802 11.6748 11.3672C11.4072 11.1211 11.0869 10.9414 10.7373 10.842C10.3467 10.7146 9.83008 10.5872 9.17676 10.4446C8.42773 10.2703 7.69727 10.0242 6.99512 9.70972C6.44238 9.48315 5.95508 9.12231 5.57715 8.65967C5.21875 8.18286 5.03418 7.59814 5.05176 7.0022C5.0459 6.39624 5.24121 5.80518 5.60742 5.32227C6.02539 4.80298 6.58203 4.41284 7.21191 4.19727C8.00977 3.93237 8.84766 3.81055 9.6875 3.83716C10.3438 3.82544 10.999 3.91406 11.6299 4.09961C12.124 4.24658 12.5889 4.48022 13.002 4.78955C13.3271 5.03369 13.5977 5.34277 13.7969 5.69727C13.959 5.9834 14.0469 6.30566 14.0518 6.63477C14.0508 6.7749 14.0225 6.91357 13.9668 7.04224C13.9111 7.17114 13.8311 7.2876 13.7295 7.38477C13.6279 7.49512 13.5029 7.58301 13.3652 7.64258C13.2266 7.7019 13.0771 7.73169 12.9268 7.72974C12.6855 7.74854 12.4463 7.6731 12.2598 7.51953C12.0625 7.33008 11.8984 7.10962 11.7725 6.86719C11.5859 6.48486 11.3174 6.14917 10.9844 5.88477C10.5479 5.61255 10.0342 5.49121 9.52246 5.53955C8.99609 5.51758 8.47559 5.64771 8.02246 5.91455C7.85742 6.00269 7.71875 6.13184 7.61816 6.28955C7.51855 6.44727 7.46094 6.62817 7.45215 6.8147C7.44629 7.01831 7.5127 7.21777 7.63965 7.3772C7.78906 7.55054 7.97266 7.69092 8.17969 7.78955C8.39941 7.90332 8.63086 7.9939 8.87012 8.05957C9.10938 8.1272 9.5 8.22461 10.0469 8.35205C10.7373 8.5022 11.3525 8.66724 11.915 8.84717C12.418 9.00049 12.8975 9.22266 13.3398 9.50708C13.7256 9.75122 14.043 10.0894 14.2617 10.4897C14.4854 10.9463 14.5879 11.4521 14.5625 11.9597C14.5693 12.6248 14.3672 13.2754 13.9844 13.8196Z" fill="#FFFFFF" fill-opacity="1.000000" fill-rule="nonzero"/>
</svg>
