<svg width="18.000000" height="18.000000" viewBox="0 0 18 18" fill="none" xmlns="http://www.w3.org/2000/svg" xmlns:xlink="http://www.w3.org/1999/xlink">
	<desc>
			Created with Pixso.
	</desc>
	<defs/>
	<path id="Vector" d="M17.0029 0L0.99707 0C0.733398 0.00195312 0.481445 0.107666 0.293945 0.294434C0.107422 0.480957 0.00195312 0.733643 0 0.997559L0 17.0024C0.00195312 17.2664 0.107422 17.519 0.293945 17.7056C0.481445 17.8923 0.733398 17.998 0.99707 18L9.61523 18L9.61523 11.04L7.27539 11.04L7.27539 8.31738L9.61523 8.31738L9.61523 6.31494C9.61523 3.98999 11.0322 2.72241 13.1172 2.72241C13.8154 2.72241 14.5127 2.72241 15.21 2.82739L15.21 5.25L13.7773 5.25C12.6445 5.25 12.4277 5.79004 12.4277 6.57739L12.4277 8.31006L15.1279 8.31006L14.7754 11.0325L12.4277 11.0325L12.4277 18L17.0029 18C17.2666 17.998 17.5186 17.8923 17.7061 17.7056C17.8926 17.519 17.998 17.2664 18 17.0024L18 0.997559C17.998 0.733643 17.8926 0.480957 17.7061 0.294434C17.5186 0.107666 17.2666 0.00195312 17.0029 0Z" fill="#FFFFFF" fill-opacity="1.000000" fill-rule="nonzero"/>
</svg>
