<svg width="16.500000" height="13.407959" viewBox="0 0 16.5 13.408" fill="none" xmlns="http://www.w3.org/2000/svg" xmlns:xlink="http://www.w3.org/1999/xlink">
	<desc>
			Created with Pixso.
	</desc>
	<defs/>
	<path id="Vector" d="M5.19043 13.4077C6.45703 13.4155 7.71289 13.1719 8.88477 12.6909C10.0566 12.2097 11.1211 11.5007 12.0176 10.6047C12.9131 9.70898 13.6221 8.64429 14.1035 7.47217C14.584 6.30029 14.8281 5.04443 14.8203 3.77759C14.8203 3.62769 14.8203 3.48511 14.8203 3.33521C15.4766 2.854 16.0449 2.2627 16.5 1.58765C15.8818 1.85815 15.2275 2.03735 14.5576 2.12012C15.2676 1.69702 15.8008 1.03076 16.0576 0.245117C15.3955 0.64209 14.6699 0.921387 13.9121 1.07007C13.4023 0.526611 12.7275 0.166504 11.9922 0.045166C11.2568 -0.0761719 10.502 0.0483398 9.84473 0.399414C9.18652 0.750244 8.66309 1.30811 8.35449 1.98657C8.0459 2.66504 7.96973 3.42651 8.1377 4.15259C6.79199 4.08667 5.47559 3.73779 4.27344 3.12915C3.07227 2.52051 2.01172 1.66577 1.16211 0.620117C0.734375 1.36353 0.604492 2.24194 0.799805 3.07739C0.994141 3.91284 1.49902 4.64307 2.21289 5.12012C1.68652 5.09985 1.17285 4.95605 0.712891 4.7002L0.712891 4.73755C0.708008 5.5144 0.969727 6.26953 1.4541 6.87671C1.93848 7.48413 2.61621 7.90698 3.375 8.0752C2.88574 8.20679 2.37305 8.22729 1.875 8.13501C2.09473 8.79761 2.51367 9.37598 3.0752 9.79102C3.63672 10.2058 4.3125 10.437 5.00977 10.4526C3.81738 11.4131 2.33398 11.9417 0.802734 11.9526C0.53418 11.9448 0.265625 11.9224 0 11.885C1.5498 12.8728 3.35156 13.3936 5.19043 13.385L5.19043 13.4077Z" fill="#FFFFFF" fill-opacity="1.000000" fill-rule="nonzero"/>
</svg>
