<svg width="16.000000" height="16.000000" viewBox="0 0 16 16" fill="none" xmlns="http://www.w3.org/2000/svg" xmlns:xlink="http://www.w3.org/1999/xlink">
	<desc>
			Created with Pixso.
	</desc>
	<defs>
		<clipPath id="clip3_1457">
			<rect id="Shopping--cart" width="16.000000" height="16.000000" fill="white" fill-opacity="0"/>
		</clipPath>
	</defs>
	<rect id="Shopping--cart" width="16.000000" height="16.000000" fill="#FFFFFF" fill-opacity="1.000000"/>
	<g clip-path="url(#clip3_1457)">
		<path id="Vector" d="M2.91016 3.5L14 3.5C14.0762 3.49814 14.1514 3.51364 14.2207 3.54535C14.29 3.57703 14.3506 3.62408 14.3994 3.68289C14.4473 3.74173 14.4814 3.81076 14.499 3.88477C14.5166 3.9588 14.5166 4.03583 14.5 4.11002L13.5 8.61002C13.4746 8.72281 13.4111 8.8233 13.3193 8.89441C13.2285 8.96552 13.1152 9.00284 13 9L4 9L4.41016 11L13 11L13 12L4 12C3.88281 12.0024 3.76855 11.9636 3.67773 11.8905C3.58594 11.8174 3.52344 11.7147 3.5 11.6L1.58984 2L0 2L0 1L2 1C2.11719 0.99765 2.23145 1.03638 2.32227 1.10947C2.41406 1.18256 2.47656 1.28537 2.5 1.40002L2.91016 3.5ZM3.80957 8L12.5996 8L13.375 4.5L3.11035 4.5L3.80957 8ZM5 15C5.55273 15 6 14.5523 6 14C6 13.4477 5.55273 13 5 13C4.44727 13 4 13.4477 4 14C4 14.5523 4.44727 15 5 15ZM12 15C12.5527 15 13 14.5523 13 14C13 13.4477 12.5527 13 12 13C11.4473 13 11 13.4477 11 14C11 14.5523 11.4473 15 12 15Z" fill="#2A254B" fill-opacity="1.000000" fill-rule="evenodd"/>
	</g>
</svg>
