<svg width="16.000000" height="16.000000" viewBox="0 0 16 16" fill="none" xmlns="http://www.w3.org/2000/svg" xmlns:xlink="http://www.w3.org/1999/xlink">
	<desc>
			Created with Pixso.
	</desc>
	<defs>
		<clipPath id="clip3_1455">
			<rect id="User--avatar" width="16.000000" height="16.000000" fill="white" fill-opacity="0"/>
		</clipPath>
	</defs>
	<rect id="User--avatar" width="16.000000" height="16.000000" fill="#FFFFFF" fill-opacity="1.000000"/>
	<g clip-path="url(#clip3_1455)">
		<path id="Vector" d="M4.11133 2.17972C5.26172 1.41055 6.61523 1 8 1C9.85547 1.00211 11.6348 1.74026 12.9473 3.05255C14.2598 4.36487 14.998 6.14413 15 8C15 9.38446 14.5898 10.7379 13.8203 11.889C13.0508 13.0401 11.958 13.9373 10.6787 14.4672C9.39941 14.997 7.99219 15.1356 6.63477 14.8655C5.27637 14.5954 4.0293 13.9287 3.0498 12.9497C2.07129 11.9708 1.4043 10.7235 1.13477 9.36563C0.864258 8.00775 1.00293 6.60031 1.5332 5.32123C2.0625 4.04214 2.95996 2.94888 4.11133 2.17972ZM11.252 10.7206C11.7188 11.1813 11.9863 11.807 11.9961 12.4629C12.9033 11.6533 13.542 10.5873 13.8301 9.40622C14.1172 8.22513 14.0391 6.98456 13.6055 5.84882C13.1729 4.71307 12.4043 3.73575 11.4033 3.04617C10.4023 2.35663 9.21582 1.98743 8 1.98743C6.78418 1.98743 5.59766 2.35663 4.59668 3.04617C3.5957 3.73575 2.82715 4.71307 2.39453 5.84882C1.96094 6.98456 1.88281 8.22513 2.16992 9.40622C2.45801 10.5873 3.09668 11.6533 4.00391 12.4629C4.01367 11.807 4.28125 11.1813 4.74805 10.7206C5.21484 10.2599 5.84375 10.0011 6.5 10L9.5 10C10.1562 10.0011 10.7852 10.2599 11.252 10.7206ZM6.61133 4.42133C7.02246 4.14664 7.50586 4 8 4C8.66309 4 9.29883 4.2634 9.76758 4.73224C10.2363 5.20108 10.5 5.83694 10.5 6.5C10.5 6.99445 10.3535 7.47781 10.0791 7.88892C9.80371 8.30005 9.41309 8.62048 8.95703 8.80969C8.5 8.99893 7.99707 9.04843 7.5127 8.95197C7.02734 8.8555 6.58203 8.6174 6.23242 8.26776C5.88281 7.91812 5.64453 7.47269 5.54785 6.98773C5.45117 6.50278 5.50098 6.00012 5.69043 5.5433C5.87988 5.08649 6.2002 4.69601 6.61133 4.42133ZM7.16699 7.74719C7.41309 7.91202 7.70312 8 8 8C8.39746 7.99954 8.7793 7.84137 9.06055 7.56015C9.3418 7.27896 9.5 6.89767 9.5 6.5C9.5 6.20334 9.41211 5.91333 9.24707 5.66666C9.08203 5.41998 8.84766 5.22772 8.57422 5.11417C8.2998 5.00064 7.99805 4.97095 7.70703 5.02881C7.41602 5.0867 7.14941 5.22955 6.93945 5.43933C6.72949 5.64911 6.58691 5.91638 6.5293 6.20737C6.4707 6.49832 6.50098 6.79993 6.61426 7.07404C6.72754 7.34811 6.91992 7.5824 7.16699 7.74719ZM5 12.5L5 13.1883C5.91016 13.7198 6.94531 14 8 14C9.05469 14 10.0898 13.7198 11 13.1883L11 12.5C11 12.1023 10.8418 11.721 10.5605 11.4398C10.2793 11.1586 9.89746 11.0004 9.5 11L6.5 11C6.10254 11.0004 5.7207 11.1586 5.43945 11.4398C5.1582 11.721 5 12.1023 5 12.5Z" fill="#2A254B" fill-opacity="1.000000" fill-rule="evenodd"/>
	</g>
</svg>
