<svg width="18.000000" height="17.925049" viewBox="0 0 18 17.925" fill="none" xmlns="http://www.w3.org/2000/svg" xmlns:xlink="http://www.w3.org/1999/xlink">
	<desc>
			Created with Pixso.
	</desc>
	<defs/>
	<path id="Vector" d="M16.6504 0L1.34961 0C0.599609 0 0 0.600098 0 1.2749L0 16.6499C0 17.325 0.599609 17.925 1.34961 17.925L16.6504 17.925C17.4004 17.925 18 17.325 18 16.6499L18 1.2749C18 0.600098 17.4004 0 16.6504 0ZM5.3252 15.3L2.7002 15.3L2.7002 6.75L5.3252 6.75L5.3252 15.3ZM4.0498 5.55005C3.22461 5.55005 2.47461 4.875 2.47461 3.9751C2.47461 3.07495 3.15039 2.3999 4.0498 2.3999C4.875 2.3999 5.625 3.07495 5.625 3.9751C5.625 4.875 4.875 5.55005 4.0498 5.55005ZM15.375 15.2251L12.75 15.2251L12.75 11.0249C12.75 10.05 12.75 8.69995 11.3252 8.69995C9.90039 8.69995 9.75 9.82495 9.75 10.875L9.75 15.1499L7.125 15.1499L7.125 6.75L9.59961 6.75L9.59961 7.875L9.6748 7.875C10.0498 7.19995 10.9502 6.44995 12.2246 6.44995C14.9248 6.44995 15.4502 8.25 15.4502 10.575L15.4502 15.2251L15.375 15.2251Z" fill="#FFFFFF" fill-opacity="1.000000" fill-rule="nonzero"/>
</svg>
