<svg width="18.000000" height="18.000000" viewBox="0 0 18 18" fill="none" xmlns="http://www.w3.org/2000/svg" xmlns:xlink="http://www.w3.org/1999/xlink">
	<desc>
			Created with Pixso.
	</desc>
	<defs/>
	<path id="Vector" d="M5.28906 0.0541992C6.24902 0.0102539 6.55566 0 9 0C11.4443 0 11.751 0.0102539 12.71 0.0544434C13.457 0.0695801 14.1953 0.210938 14.8945 0.4729C15.4932 0.704102 16.0361 1.05762 16.4893 1.51099C16.9424 1.96411 17.2959 2.50708 17.5273 3.10498C17.7891 3.8042 17.9307 4.54272 17.9463 5.28931C17.9893 6.24927 18 6.55566 18 9C18 11.4443 17.9893 11.7507 17.9463 12.7102C17.9316 13.457 17.79 14.1956 17.5283 14.895C17.2969 15.4929 16.9434 16.0359 16.4893 16.4893C16.0361 16.9426 15.4932 17.2964 14.8955 17.5276C14.1963 17.7896 13.457 17.9309 12.7109 17.9458C11.751 17.9897 11.4443 18 9 18C6.55566 18 6.24902 17.9897 5.29004 17.9463C4.54297 17.9314 3.80469 17.7898 3.10547 17.5278C2.50684 17.2966 1.96387 16.9431 1.51074 16.4897C1.05762 16.0364 0.704102 15.4934 0.472656 14.8953C0.210938 14.196 0.0693359 13.4573 0.0537109 12.7107C0.0107422 11.7507 0 11.4443 0 9C0 6.55566 0.0107422 6.24927 0.0537109 5.28979C0.0693359 4.54297 0.210938 3.80444 0.472656 3.10498C0.704102 2.50708 1.05762 1.96411 1.51074 1.51074C1.96387 1.05737 2.50684 0.703613 3.10547 0.472412C3.80469 0.210693 4.54297 0.0690918 5.28906 0.0541992ZM12.6367 1.67407C11.6875 1.63086 11.4033 1.62158 9 1.62158C6.59668 1.62158 6.3125 1.63086 5.36328 1.67407C4.79297 1.68091 4.22754 1.78564 3.69238 1.98389C3.30371 2.13379 2.95117 2.36304 2.65723 2.65723C2.36328 2.95142 2.13379 3.30396 1.98438 3.69214C1.78613 4.22729 1.68066 4.79272 1.67383 5.36328C1.63086 6.31226 1.62109 6.59692 1.62109 9C1.62109 11.4031 1.63086 11.6877 1.67383 12.6367C1.68066 13.2075 1.78613 13.7729 1.98438 14.3081C2.13379 14.6963 2.36328 15.0486 2.65723 15.3428C2.95117 15.637 3.30371 15.8665 3.69238 16.0161C4.22754 16.2144 4.79297 16.3191 5.36328 16.3259C6.3125 16.3694 6.59668 16.3784 9 16.3784C11.4033 16.3784 11.6875 16.3694 12.6367 16.3259C13.207 16.3191 13.7725 16.2144 14.3076 16.0161C14.6963 15.8665 15.0488 15.637 15.3428 15.3428C15.6367 15.0486 15.8662 14.6963 16.0156 14.3081C16.2139 13.7729 16.3193 13.2075 16.3262 12.6367C16.3691 11.6877 16.3789 11.4031 16.3789 9C16.3789 6.59692 16.3691 6.31226 16.3262 5.36328C16.3193 4.79272 16.2139 4.22729 16.0156 3.69214C15.8662 3.30396 15.6367 2.95142 15.3428 2.65723C15.0488 2.36304 14.6963 2.13379 14.3076 1.98413C13.7725 1.78589 13.207 1.68091 12.6367 1.67407ZM13.8047 5.27588C14.4004 5.27588 14.8838 4.79224 14.8838 4.1958C14.8838 3.59937 14.4004 3.11572 13.8047 3.11572C13.208 3.11572 12.7246 3.59937 12.7246 4.1958C12.7246 4.79224 13.208 5.27588 13.8047 5.27588ZM9 4.37842C8.08594 4.37842 7.19238 4.64941 6.43262 5.15723C5.67188 5.66504 5.08008 6.38696 4.73047 7.23145C4.37988 8.07593 4.28906 9.00513 4.4668 9.90161C4.64551 10.7981 5.08594 11.6216 5.73242 12.2681C6.37793 12.9143 7.20215 13.3545 8.09863 13.533C8.99512 13.7112 9.92383 13.6196 10.7686 13.2698C11.6133 12.9202 12.335 12.3276 12.8428 11.5676C13.3506 10.8076 13.6221 9.91406 13.6221 9C13.6221 7.77417 13.1348 6.59863 12.2676 5.73193C11.4014 4.86523 10.2256 4.37842 9 4.37842ZM9 12C8.40625 12 7.82617 11.824 7.33301 11.4944C6.83984 11.1648 6.45508 10.6963 6.22852 10.1479C6.00098 9.59985 5.94141 8.99658 6.05762 8.41479C6.17383 7.83276 6.45898 7.29834 6.87891 6.87866C7.29785 6.45923 7.83301 6.17334 8.41504 6.05762C8.99707 5.94189 9.59961 6.00122 10.1484 6.22827C10.6963 6.45532 11.165 6.83984 11.4941 7.33325C11.8242 7.82666 12 8.40674 12 9C12 9.79565 11.6836 10.5586 11.1211 11.1213C10.5586 11.6838 9.7959 12 9 12Z" fill="#FFFFFF" fill-opacity="1.000000" fill-rule="evenodd"/>
</svg>
