<svg width="16.000000" height="16.000000" viewBox="0 0 16 16" fill="none" xmlns="http://www.w3.org/2000/svg" xmlns:xlink="http://www.w3.org/1999/xlink">
	<desc>
			Created with Pixso.
	</desc>
	<defs>
		<clipPath id="clip3_1459">
			<rect id="Search" width="16.000000" height="16.000000" fill="white" fill-opacity="0"/>
		</clipPath>
	</defs>
	<rect id="Search" width="16.000000" height="16.000000" fill="#FFFFFF" fill-opacity="1.000000"/>
	<g clip-path="url(#clip3_1459)">
		<path id="Vector" d="M14.5 13.7929L10.7236 10.0169C11.6318 8.92758 12.084 7.53036 11.9873 6.11597C11.8906 4.70154 11.2529 3.37878 10.2061 2.42288C9.1582 1.46698 7.7832 0.951508 6.36621 0.983734C4.94922 1.01593 3.59863 1.59332 2.5957 2.59579C1.59375 3.59827 1.01562 4.94864 0.983398 6.366C0.951172 7.78336 1.4668 9.15854 2.42285 10.2055C3.37891 11.2525 4.70117 11.8907 6.11621 11.9872C7.53027 12.0838 8.92773 11.6313 10.0166 10.7239L13.793 14.5L14.5 13.7929ZM2 6.5C2 5.60999 2.26367 4.73996 2.75879 3.99994C3.25293 3.25992 3.95605 2.68314 4.77832 2.34253C5.60059 2.00195 6.50488 1.91284 7.37793 2.08646C8.25098 2.2601 9.05273 2.68869 9.68164 3.31802C10.3115 3.94736 10.7402 4.74918 10.9141 5.6221C11.0869 6.495 10.998 7.39981 10.6572 8.22208C10.3174 9.04434 9.74023 9.74713 9 10.2416C8.25977 10.7361 7.38965 11 6.5 11C5.30664 10.9987 4.16309 10.5241 3.31934 9.68051C2.47559 8.83688 2.00098 7.69305 2 6.5Z" fill="#2A254B" fill-opacity="1.000000" fill-rule="evenodd"/>
	</g>
</svg>
