<svg width="24.000000" height="24.000000" viewBox="0 0 24 24" fill="none" xmlns="http://www.w3.org/2000/svg" xmlns:xlink="http://www.w3.org/1999/xlink">
	<desc>
			Created with Pixso.
	</desc>
	<defs>
		<clipPath id="clip4_561">
			<rect id="Sprout" width="24.000000" height="24.000000" fill="white" fill-opacity="0"/>
		</clipPath>
	</defs>
	<rect id="Sprout" width="24.000000" height="24.000000" fill="#FFFFFF" fill-opacity="1.000000"/>
	<g clip-path="url(#clip4_561)">
		<path id="Vector" d="M18.75 1.5C17.0879 1.50275 15.4648 2.00708 14.0938 2.94705C12.7236 3.88699 11.668 5.21881 11.0664 6.76831C10.584 6.06903 9.93945 5.49725 9.1875 5.10217C8.43555 4.70706 7.59961 4.5004 6.75 4.5L4.5 4.5L4.5 6.75C4.50195 8.14191 5.05469 9.47638 6.03906 10.4606C7.02344 11.4448 8.3584 11.9984 9.75 12L10.5 12L10.5 18.787C8.77734 18.9554 7.16699 19.7191 5.94629 20.9465L7.00684 22.0071C7.63477 21.3798 8.39355 20.8995 9.22852 20.6006C10.0645 20.3018 10.9551 20.192 11.8379 20.279C12.7207 20.3661 13.5732 20.6478 14.335 21.104C15.0957 21.5602 15.7461 22.1794 16.2383 22.9171L17.4854 22.0826C16.8701 21.1638 16.0596 20.3925 15.1113 19.8244C14.1631 19.2562 13.1006 18.9052 12 18.7965L12 12L12.75 12C14.9375 11.9975 17.0342 11.1275 18.5811 9.5809C20.1279 8.03424 20.9971 5.93729 21 3.75L21 1.5L18.75 1.5ZM9.75 10.5C8.75586 10.4989 7.80273 10.1034 7.09961 9.40039C6.39648 8.69739 6.00098 7.7442 6 6.75L6 6L6.75 6C7.74414 6.00107 8.69727 6.39651 9.40039 7.09955C10.1035 7.80255 10.499 8.75577 10.5 9.75L10.5 10.5L9.75 10.5ZM19.5 3.75C19.498 5.53961 18.7861 7.25534 17.5205 8.52078C16.2549 9.78622 14.54 10.498 12.75 10.5L12 10.5L12 9.75C12.002 7.96039 12.7139 6.24466 13.9795 4.97922C15.2451 3.71378 16.96 3.00198 18.75 3L19.5 3L19.5 3.75Z" fill="#2A254B" fill-opacity="1.000000" fill-rule="nonzero"/>
	</g>
</svg>
