<svg width="24.000000" height="24.000000" viewBox="0 0 24 24" fill="none" xmlns="http://www.w3.org/2000/svg" xmlns:xlink="http://www.w3.org/1999/xlink">
	<desc>
			Created with Pixso.
	</desc>
	<defs>
		<clipPath id="clip4_573">
			<rect id="Checkmark--outline" width="24.000000" height="24.000000" fill="white" fill-opacity="0"/>
		</clipPath>
	</defs>
	<rect id="Checkmark--outline" width="24.000000" height="24.000000" fill="#FFFFFF" fill-opacity="1.000000"/>
	<g clip-path="url(#clip4_573)">
		<path id="Vector" d="M6.16699 3.26956C7.89355 2.11581 9.92285 1.5 12 1.5C14.7852 1.5 17.4551 2.60623 19.4248 4.57538C21.3936 6.54453 22.5 9.21524 22.5 12C22.5 14.0767 21.8838 16.1068 20.7305 17.8335C19.5771 19.5602 17.9365 20.906 16.0186 21.7007C14.0996 22.4955 11.9883 22.7034 9.95117 22.2982C7.91504 21.8931 6.04395 20.8931 4.5752 19.4246C3.10645 17.9562 2.10645 16.0852 1.70215 14.0485C1.29688 12.0117 1.50488 9.90045 2.29883 7.98181C3.09375 6.0632 4.43945 4.42331 6.16699 3.26956ZM7 19.4832C8.47949 20.4722 10.2197 21 12 21C14.3867 21 16.6758 20.0518 18.3643 18.364C20.0518 16.6761 21 14.387 21 12C21 10.22 20.4717 8.47992 19.4834 6.99988C18.4941 5.51984 17.0889 4.36627 15.4443 3.68509C13.7998 3.00391 11.9902 2.82565 10.2441 3.17294C8.49805 3.5202 6.89453 4.37738 5.63574 5.63605C4.37695 6.89471 3.52051 8.49835 3.17285 10.2442C2.8252 11.99 3.00391 13.7996 3.68555 15.4442C4.36621 17.0887 5.51953 18.4943 7 19.4832ZM6.75 12.3098L10.5 16.0605L17.25 9.31125L16.1885 8.25L10.5 13.9395L7.80957 11.25L6.75 12.3098Z" fill="#2A254B" fill-opacity="1.000000" fill-rule="evenodd"/>
	</g>
</svg>
