<svg width="24.000000" height="24.000000" viewBox="0 0 24 24" fill="none" xmlns="http://www.w3.org/2000/svg" xmlns:xlink="http://www.w3.org/1999/xlink">
	<desc>
			Created with Pixso.
	</desc>
	<defs>
		<clipPath id="clip4_555">
			<rect id="Delivery" width="24.000000" height="24.000000" fill="white" fill-opacity="0"/>
		</clipPath>
	</defs>
	<rect id="Delivery" width="24.000000" height="24.000000" fill="#FFFFFF" fill-opacity="1.000000"/>
	<g clip-path="url(#clip4_555)">
		<path id="Vector" d="M20.1895 7.2048L22.4395 12.4548C22.4795 12.548 22.5 12.6485 22.5 12.75L22.5 18C22.5 18.1989 22.4209 18.3897 22.2803 18.5303C22.1396 18.671 21.9492 18.75 21.75 18.75L20.1436 18.75C19.9795 19.3933 19.6064 19.9638 19.083 20.3712C18.5586 20.7787 17.9141 20.9999 17.25 20.9999C16.5859 20.9999 15.9414 20.7787 15.417 20.3712C14.8936 19.9638 14.5205 19.3933 14.3564 18.75L9.64355 18.75C9.46094 19.457 9.02637 20.0732 8.42285 20.4829C7.81836 20.8928 7.08496 21.0681 6.36035 20.9761C5.63672 20.8841 4.9707 20.5311 4.4873 19.9832C4.00488 19.4353 3.73828 18.7302 3.73828 18C3.73828 17.2698 4.00488 16.5647 4.4873 16.0168C4.9707 15.4689 5.63672 15.1159 6.36035 15.0239C7.08496 14.9319 7.81836 15.1072 8.42285 15.5171C9.02637 15.9268 9.46094 16.543 9.64355 17.25L14.3564 17.25C14.4561 16.8677 14.6309 16.5089 14.8701 16.1943C15.1094 15.8797 15.4082 15.6156 15.75 15.4171L15.75 6L4.5 6L4.5 4.5L16.5 4.5C16.6992 4.5 16.8896 4.57901 17.0303 4.71967C17.1709 4.86032 17.25 5.05109 17.25 5.25L17.25 6.75L19.5 6.75C19.6465 6.74991 19.79 6.79297 19.9131 6.87384C20.0352 6.95468 20.1318 7.06979 20.1895 7.2048ZM9 8.25L1.5 8.25L1.5 9.75L9 9.75L9 8.25ZM19.0059 8.25L17.25 8.25L17.25 12L20.6133 12L19.0059 8.25ZM12 12L3 12L3 13.5L12 13.5L12 12ZM20.1436 17.25L21 17.25L21 13.5L17.25 13.5L17.25 15C17.9131 15.0019 18.5576 15.2238 19.0811 15.631C19.6045 16.0382 19.9785 16.6076 20.1436 17.25ZM5.91699 19.2472C6.16309 19.412 6.45312 19.5 6.75 19.5C7.14746 19.4995 7.5293 19.3414 7.81055 19.0602C8.0918 18.779 8.25 18.3977 8.25 18C8.25 17.7033 8.16211 17.4133 7.99707 17.1667C7.83203 16.92 7.59766 16.7277 7.32422 16.6142C7.0498 16.5006 6.74805 16.4709 6.45703 16.5288C6.16602 16.5867 5.89941 16.7296 5.68945 16.9393C5.47949 17.1491 5.33691 17.4164 5.2793 17.7074C5.2207 17.9984 5.25098 18.2999 5.36426 18.574C5.47754 18.8481 5.66992 19.0824 5.91699 19.2472ZM16.417 19.2472C16.6631 19.412 16.9531 19.5 17.25 19.5C17.6475 19.4995 18.0293 19.3414 18.3105 19.0602C18.5918 18.779 18.75 18.3977 18.75 18C18.75 17.7033 18.6621 17.4133 18.4971 17.1667C18.332 16.92 18.0977 16.7277 17.8242 16.6142C17.5498 16.5006 17.248 16.4709 16.957 16.5288C16.666 16.5867 16.3994 16.7296 16.1895 16.9393C15.9795 17.1491 15.8369 17.4164 15.7793 17.7074C15.7207 17.9984 15.751 18.2999 15.8643 18.574C15.9775 18.8481 16.1699 19.0824 16.417 19.2472Z" fill="#2A254B" fill-opacity="1.000000" fill-rule="evenodd"/>
	</g>
</svg>
