<svg width="20.928711" height="21.000732" viewBox="0 0 20.9287 21.0007" fill="none" xmlns="http://www.w3.org/2000/svg" xmlns:xlink="http://www.w3.org/1999/xlink">
	<desc>
			Created with Pixso.
	</desc>
	<defs/>
	<path id="Vector" d="M10.4287 0C7.99414 0.0166016 5.6416 0.878418 3.77246 2.43823C1.90332 3.99805 0.634766 6.15894 0.182617 8.55078C-0.269531 10.9429 0.124023 13.4177 1.29492 15.5518C2.4668 17.6858 4.34277 19.3467 6.60352 20.25C6.45117 19.2559 6.45117 18.2441 6.60352 17.25L7.84082 12C7.64551 11.5244 7.54785 11.0142 7.55566 10.5C7.55566 9.04492 8.40332 7.94995 9.45312 7.94995C9.64355 7.94702 9.83203 7.98535 10.0068 8.06226C10.1807 8.13916 10.3359 8.25269 10.4619 8.39502C10.5879 8.5376 10.6816 8.70557 10.7363 8.8877C10.792 9.06958 10.8066 9.26147 10.7812 9.44995C10.7812 10.3501 10.2109 11.7 9.91113 12.9451C9.84668 13.1772 9.83887 13.4214 9.88867 13.6572C9.93848 13.8931 10.0449 14.1133 10.1973 14.2996C10.3506 14.4856 10.5459 14.6321 10.7676 14.7268C10.9893 14.8213 11.2305 14.8608 11.4707 14.8425C13.3311 14.8425 14.7715 12.8701 14.7715 10.0349C14.79 9.45898 14.6885 8.88525 14.4727 8.35059C14.2578 7.81592 13.9326 7.33203 13.5205 6.92993C13.1074 6.52759 12.6152 6.21582 12.0752 6.0144C11.5352 5.81299 10.959 5.72632 10.3838 5.76001C9.76953 5.73364 9.15625 5.83228 8.58105 6.04956C8.00586 6.26709 7.48047 6.59912 7.03711 7.02539C6.59473 7.45166 6.24219 7.96362 6.00293 8.52979C5.7627 9.09619 5.64062 9.70508 5.64355 10.3201C5.63477 11.1765 5.89746 12.0139 6.39355 12.7124C6.42969 12.7527 6.45508 12.8008 6.46875 12.8533C6.48145 12.9055 6.48145 12.9602 6.46875 13.0125C6.38574 13.3425 6.20605 14.0625 6.17578 14.2051C6.14648 14.3474 6.01855 14.4375 5.82324 14.3474C4.51074 13.7324 3.69336 11.8201 3.69336 10.2749C3.69336 6.96753 6.10059 3.92261 10.6309 3.92261C14.2686 3.92261 17.1035 6.51758 17.1035 9.98999C17.1035 13.605 14.8535 16.5149 11.6514 16.5149C11.1816 16.5312 10.7158 16.4302 10.2949 16.2205C9.875 16.011 9.5127 15.6997 9.24316 15.3149L8.59082 17.8125C8.27832 18.7832 7.83984 19.7085 7.28613 20.5649C8.30566 20.8665 9.36523 21.0129 10.4287 21C13.2129 21 15.8838 19.8938 17.8535 17.9246C19.8223 15.9556 20.9287 13.2847 20.9287 10.5C20.9287 7.71533 19.8223 5.04443 17.8535 3.07544C15.8838 1.1062 13.2129 0 10.4287 0Z" fill="#FFFFFF" fill-opacity="1.000000" fill-rule="nonzero"/>
</svg>
